<svg width="327" height="195" viewBox="0 0 327 195" fill="none" xmlns="http://www.w3.org/2000/svg">
<g clip-path="url(#clip0_1_276)">
<path d="M133.469 121.499V156.82M103.175 86.0377V156.822M72.8817 139.227V156.822M163.763 103.763V156.821M193.902 121.499V156.82M224.196 86.0377V156.822M254.49 139.227V156.822" stroke="url(#paint0_linear_1_276)" stroke-width="10" stroke-linecap="round" stroke-linejoin="round"/>
<path fill-rule="evenodd" clip-rule="evenodd" d="M48.4284 119.536H50.0602C50.4547 119.536 50.7724 119.857 50.7724 120.249V121.883C50.7724 122.279 50.4514 122.597 50.0602 122.597H48.4284C48.2397 122.596 48.0589 122.521 47.9255 122.387C47.792 122.253 47.7167 122.072 47.7159 121.883V120.249C47.7158 120.155 47.7341 120.063 47.7698 119.976C47.8055 119.889 47.858 119.811 47.9242 119.744C47.9904 119.678 48.0691 119.626 48.1556 119.59C48.2421 119.554 48.3348 119.536 48.4284 119.536ZM54.0856 119.536H55.7174C56.1086 119.536 56.4296 119.857 56.4296 120.249V121.883C56.4296 122.279 56.1086 122.597 55.7174 122.597H54.0856C53.8969 122.596 53.7162 122.521 53.5828 122.387C53.4494 122.253 53.3742 122.072 53.3735 121.883V120.249C53.3735 119.857 53.6944 119.536 54.0856 119.536ZM59.7468 119.536H61.3786C61.7698 119.536 62.0911 119.857 62.0911 120.249V121.883C62.0911 122.279 61.7698 122.597 61.3786 122.597H59.7468C59.5581 122.596 59.3774 122.521 59.244 122.387C59.1106 122.253 59.0353 122.072 59.0347 121.883V120.249C59.0345 120.155 59.0528 120.063 59.0885 119.976C59.1242 119.889 59.1766 119.811 59.2428 119.744C59.309 119.678 59.3876 119.626 59.474 119.59C59.5605 119.554 59.6532 119.536 59.7468 119.536ZM65.4043 119.536H67.0362C67.4274 119.536 67.7486 119.857 67.7486 120.249V121.883C67.7486 122.279 67.4274 122.597 67.0362 122.597H65.4043C65.2151 122.597 65.0337 122.522 64.8996 122.388C64.7656 122.254 64.6898 122.073 64.689 121.883V120.249C64.6909 120.06 64.7671 119.879 64.9009 119.746C65.0347 119.613 65.2155 119.537 65.4043 119.536ZM71.0623 119.536H72.6941C73.0889 119.536 73.4098 119.857 73.4098 120.249V121.883C73.4096 121.977 73.391 122.07 73.3549 122.157C73.3188 122.243 73.266 122.322 73.1995 122.388C73.1331 122.455 73.0542 122.507 72.9675 122.543C72.8807 122.578 72.7878 122.597 72.6941 122.596H71.0623C70.8736 122.596 70.6928 122.52 70.5594 122.387C70.426 122.253 70.3508 122.072 70.3501 121.883V120.249C70.3501 119.857 70.6711 119.536 71.0623 119.536ZM54.2932 125.714H55.925C56.3162 125.714 56.6371 126.035 56.6371 126.427V128.064C56.6371 128.456 56.3162 128.778 55.925 128.778H54.2932C54.1043 128.778 53.9233 128.702 53.7898 128.569C53.6563 128.435 53.5812 128.254 53.581 128.064V126.43C53.5805 126.336 53.5985 126.243 53.634 126.156C53.6696 126.069 53.7219 125.99 53.7881 125.924C53.8543 125.857 53.9331 125.804 54.0197 125.768C54.1064 125.732 54.1993 125.714 54.2932 125.714ZM59.9507 125.714H61.5825C61.9737 125.714 62.2947 126.035 62.2947 126.427V128.064C62.2947 128.456 61.9737 128.778 61.5825 128.778H59.9507C59.762 128.777 59.5812 128.702 59.4478 128.568C59.3143 128.434 59.239 128.253 59.2382 128.064V126.43C59.2377 126.336 59.2558 126.243 59.2913 126.156C59.3269 126.069 59.3793 125.99 59.4456 125.924C59.5118 125.857 59.5905 125.804 59.6772 125.768C59.7639 125.732 59.8569 125.714 59.9507 125.714ZM65.6086 125.714H67.2404C67.6349 125.714 67.9562 126.035 67.9562 126.427V128.064C67.9562 128.456 67.6349 128.778 67.2404 128.778H65.6086C65.4199 128.777 65.2392 128.702 65.1058 128.568C64.9724 128.434 64.8972 128.253 64.8965 128.064V126.43C64.8965 126.035 65.2174 125.714 65.6086 125.714ZM59.7468 112.899H61.3786C61.7698 112.899 62.0911 113.221 62.0911 113.612V115.246C62.0911 115.642 61.7698 115.96 61.3786 115.96H59.7468C59.5581 115.959 59.3774 115.884 59.244 115.75C59.1106 115.616 59.0353 115.435 59.0347 115.246V113.612C59.0345 113.519 59.0528 113.426 59.0885 113.339C59.1242 113.253 59.1766 113.174 59.2428 113.108C59.309 113.041 59.3876 112.989 59.474 112.953C59.5605 112.917 59.6532 112.899 59.7468 112.899ZM65.4043 112.899H67.0362C67.4274 112.899 67.7486 113.221 67.7486 113.612V115.246C67.7486 115.642 67.4274 115.96 67.0362 115.96H65.4043C65.2151 115.96 65.0337 115.885 64.8996 115.751C64.7656 115.617 64.6898 115.436 64.689 115.246V113.612C64.6909 113.423 64.7671 113.243 64.9009 113.109C65.0347 112.976 65.2155 112.9 65.4043 112.899ZM252.992 127.398H254.623C255.018 127.398 255.336 127.719 255.336 128.111V129.745C255.335 129.934 255.26 130.116 255.127 130.249C254.993 130.383 254.812 130.458 254.623 130.458H252.992C252.803 130.458 252.622 130.382 252.489 130.249C252.355 130.115 252.28 129.934 252.279 129.745V128.111C252.279 128.017 252.297 127.925 252.333 127.838C252.369 127.751 252.421 127.673 252.487 127.606C252.554 127.54 252.632 127.488 252.719 127.452C252.805 127.416 252.898 127.398 252.992 127.398ZM258.649 127.398H260.281C260.672 127.398 260.993 127.719 260.993 128.111V129.745C260.993 129.934 260.917 130.116 260.784 130.249C260.65 130.383 260.469 130.458 260.281 130.458H258.649C258.46 130.458 258.279 130.382 258.146 130.249C258.013 130.115 257.937 129.934 257.937 129.745V128.111C257.937 127.719 258.258 127.398 258.649 127.398ZM264.31 127.398H265.942C266.333 127.398 266.654 127.719 266.654 128.111V129.745C266.654 129.934 266.579 130.116 266.445 130.249C266.312 130.383 266.131 130.458 265.942 130.458H264.31C264.121 130.458 263.941 130.382 263.807 130.249C263.674 130.115 263.599 129.934 263.598 129.745V128.111C263.598 128.017 263.616 127.925 263.652 127.838C263.687 127.751 263.74 127.673 263.806 127.607C263.872 127.54 263.951 127.488 264.037 127.452C264.124 127.416 264.216 127.398 264.31 127.398ZM269.968 127.398H271.599C271.991 127.398 272.311 127.719 272.311 128.111V129.745C272.311 129.934 272.236 130.116 272.103 130.249C271.969 130.383 271.788 130.458 271.599 130.458H269.968C269.778 130.458 269.597 130.383 269.463 130.25C269.329 130.116 269.253 129.935 269.252 129.745V128.111C269.254 127.922 269.33 127.741 269.464 127.608C269.598 127.475 269.779 127.399 269.968 127.398ZM275.625 127.398H277.257C277.652 127.398 277.973 127.719 277.973 128.111V129.745C277.973 129.839 277.954 129.932 277.918 130.019C277.882 130.105 277.829 130.184 277.763 130.25C277.696 130.317 277.617 130.369 277.531 130.405C277.444 130.44 277.351 130.459 277.257 130.458H275.625C275.437 130.458 275.256 130.382 275.123 130.249C274.989 130.115 274.914 129.934 274.913 129.745V128.111C274.913 127.719 275.234 127.398 275.625 127.398ZM258.856 133.576H260.488C260.879 133.576 261.2 133.897 261.2 134.289V135.926C261.2 136.318 260.879 136.64 260.488 136.64H258.856C258.667 136.639 258.486 136.564 258.353 136.431C258.219 136.297 258.144 136.116 258.144 135.926V134.292C258.143 134.198 258.161 134.105 258.197 134.018C258.233 133.931 258.285 133.852 258.351 133.786C258.417 133.719 258.496 133.666 258.583 133.63C258.67 133.594 258.763 133.576 258.856 133.576ZM264.514 133.576H266.146C266.537 133.576 266.858 133.897 266.858 134.289V135.926C266.858 136.318 266.537 136.64 266.146 136.64H264.514C264.325 136.639 264.144 136.564 264.011 136.43C263.878 136.296 263.802 136.115 263.801 135.926V134.292C263.801 134.198 263.819 134.105 263.855 134.018C263.89 133.931 263.943 133.852 264.009 133.786C264.075 133.719 264.154 133.666 264.24 133.63C264.327 133.594 264.42 133.576 264.514 133.576ZM270.172 133.576H271.804C272.198 133.576 272.519 133.897 272.519 134.289V135.926C272.519 136.318 272.198 136.64 271.804 136.64H270.172C269.983 136.639 269.802 136.564 269.669 136.43C269.536 136.296 269.46 136.115 269.46 135.926V134.292C269.46 133.897 269.781 133.576 270.172 133.576ZM264.31 120.761H265.942C266.333 120.761 266.654 121.083 266.654 121.474V123.109C266.654 123.504 266.333 123.822 265.942 123.822H264.31C264.121 123.821 263.941 123.746 263.807 123.612C263.674 123.479 263.599 123.297 263.598 123.109V121.474C263.598 121.381 263.616 121.288 263.652 121.201C263.687 121.115 263.74 121.036 263.806 120.97C263.872 120.904 263.951 120.851 264.037 120.815C264.124 120.779 264.216 120.761 264.31 120.761ZM269.968 120.761H271.599C271.991 120.761 272.311 121.083 272.311 121.474V123.109C272.311 123.504 271.991 123.822 271.599 123.822H269.968C269.778 123.822 269.597 123.747 269.463 123.613C269.329 123.479 269.253 123.298 269.252 123.109V121.474C269.254 121.285 269.33 121.105 269.464 120.971C269.598 120.838 269.779 120.762 269.968 120.761Z" fill="#E1E4E5"/>
<path d="M47.2773 63.2098L41.7013 68.7877L38.9926 66.0833M59.3581 60.5405H75.8371M59.4864 68.7272H86.7381M47.2773 82.3122L41.7013 87.8902L38.9926 85.1861M59.3581 79.6433H75.8371M59.4864 87.83H86.7381M248.787 69.7613L243.211 75.3392L240.503 72.6348M260.868 67.092H277.347M260.996 75.2787H288.248M248.787 88.8641L243.211 94.4417L240.503 91.7376M260.868 86.1948H277.347M260.996 94.3815H288.248" stroke="#E1E4E5" stroke-width="2" stroke-linecap="round" stroke-linejoin="round"/>
<path d="M167.668 85.0601C161.613 86.4964 155.209 81.3545 155.209 81.3545C155.209 81.3545 158.627 73.8864 164.683 72.4543C170.738 71.018 177.14 76.1556 177.14 76.1556C177.14 76.1556 173.723 83.6237 167.668 85.0601Z" fill="url(#paint1_linear_1_276)"/>
<path d="M182.398 61.7626C188.772 66.1591 198.511 63.0858 198.511 63.0858C198.511 63.0858 197.908 52.8849 191.529 48.4927C185.155 44.0958 175.421 47.1651 175.421 47.1651C175.421 47.1651 176.024 57.366 182.398 61.7626Z" fill="url(#paint2_linear_1_276)"/>
<path d="M229.329 60.8139C225.522 64.6943 218.402 63.8764 218.402 63.8764C218.402 63.8764 217.46 56.7659 221.271 52.8877C225.078 49.0069 232.195 49.823 232.195 49.823C232.195 49.823 233.137 56.9331 229.329 60.8139Z" fill="url(#paint3_linear_1_276)"/>
<path d="M196.232 139.542C194.426 139.542 192.961 141.009 192.961 142.818C192.961 144.627 194.426 146.094 196.232 146.094C198.039 146.094 199.504 144.627 199.504 142.818C199.504 141.009 198.039 139.542 196.232 139.542Z" fill="url(#paint4_linear_1_276)"/>
<path d="M194.018 87.8513C190.195 87.8513 187.096 90.8545 187.096 94.5591C187.096 98.2637 190.195 101.267 194.018 101.267C197.841 101.267 200.94 98.2637 200.94 94.5591C200.94 90.8545 197.841 87.8513 194.018 87.8513Z" fill="url(#paint5_linear_1_276)"/>
<path d="M34.4695 116.509C33.113 116.509 32.0133 115.407 32.0133 114.049C32.0133 112.69 33.113 111.589 34.4695 111.589C35.8261 111.589 36.9258 112.69 36.9258 114.049C36.9258 115.407 35.8261 116.509 34.4695 116.509Z" fill="url(#paint6_linear_1_276)"/>
<path d="M264.82 58.0848C262.23 58.0848 260.131 55.9826 260.131 53.3893C260.131 50.7961 262.23 48.6939 264.82 48.6939C267.409 48.6939 269.509 50.7961 269.509 53.3893C269.509 55.9826 267.409 58.0848 264.82 58.0848Z" fill="url(#paint7_linear_1_276)"/>
<path d="M208.163 45.8944C206.93 45.8944 205.93 44.8933 205.93 43.6585C205.93 42.4237 206.93 41.4227 208.163 41.4227C209.396 41.4227 210.396 42.4237 210.396 43.6585C210.396 44.8933 209.396 45.8944 208.163 45.8944Z" fill="#E1E4E5"/>
<path d="M106.885 67.6107C105.281 67.6107 103.982 66.3093 103.982 64.7038C103.982 63.0984 105.281 61.797 106.885 61.797C108.488 61.797 109.788 63.0984 109.788 64.7038C109.788 66.3093 108.488 67.6107 106.885 67.6107Z" fill="#E1E4E5"/>
<path d="M266.724 108.615C265.491 108.615 264.491 107.814 264.491 106.826C264.491 105.838 265.491 105.037 266.724 105.037C267.957 105.037 268.957 105.838 268.957 106.826C268.957 107.814 267.957 108.615 266.724 108.615Z" fill="#E1E4E5"/>
<path d="M135.827 87.1657C136.476 89.5917 135.039 92.0852 132.616 92.7352C130.194 93.3852 127.704 91.9456 127.054 89.5197C126.405 87.0938 127.843 84.6002 130.266 83.9502C132.688 83.3002 135.178 84.7398 135.827 87.1657Z" fill="#E1E4E5"/>
<path d="M290.685 114.3H290.744C291.09 119.208 294.735 119.283 294.735 119.283C294.735 119.283 290.715 119.362 290.715 125.033C290.715 119.362 286.696 119.283 286.696 119.283C286.696 119.283 290.339 119.208 290.685 114.3ZM144.266 59.9216H144.324C144.662 64.9148 148.221 64.9914 148.221 64.9914C148.221 64.9914 144.296 65.0715 144.296 70.841C144.296 65.0715 140.37 64.9914 140.37 64.9914C140.37 64.9914 143.929 64.9148 144.266 59.9216Z" fill="#E1E4E5"/>
</g>
<defs>
<linearGradient id="paint0_linear_1_276" x1="111.405" y1="72.5886" x2="242.516" y2="167.059" gradientUnits="userSpaceOnUse">
<stop stop-color="#5F5D9C"/>
<stop offset="1" stop-color="#E148D1"/>
</linearGradient>
<linearGradient id="paint1_linear_1_276" x1="144.867" y1="88.6314" x2="197.898" y2="63.6126" gradientUnits="userSpaceOnUse">
<stop stop-color="white"/>
<stop offset="1" stop-color="#EEEEEE"/>
</linearGradient>
<linearGradient id="paint2_linear_1_276" x1="207.229" y1="76.1888" x2="156.978" y2="23.2737" gradientUnits="userSpaceOnUse">
<stop stop-color="white"/>
<stop offset="1" stop-color="#EEEEEE"/>
</linearGradient>
<linearGradient id="paint3_linear_1_276" x1="214.138" y1="74.0692" x2="241.719" y2="30.8937" gradientUnits="userSpaceOnUse">
<stop stop-color="white"/>
<stop offset="1" stop-color="#EEEEEE"/>
</linearGradient>
<linearGradient id="paint4_linear_1_276" x1="198.116" y1="147.338" x2="191.463" y2="145.473" gradientUnits="userSpaceOnUse">
<stop stop-color="#5F5D9C"/>
<stop offset="1" stop-color="#E148D1"/>
</linearGradient>
<linearGradient id="paint5_linear_1_276" x1="198.004" y1="103.816" x2="183.997" y2="99.7565" gradientUnits="userSpaceOnUse">
<stop stop-color="#5F5D9C"/>
<stop offset="1" stop-color="#E148D1"/>
</linearGradient>
<linearGradient id="paint6_linear_1_276" x1="35.8837" y1="110.655" x2="30.8888" y2="112.055" gradientUnits="userSpaceOnUse">
<stop stop-color="#5F5D9C"/>
<stop offset="1" stop-color="#E148D1"/>
</linearGradient>
<linearGradient id="paint7_linear_1_276" x1="267.519" y1="46.9096" x2="257.984" y2="49.5838" gradientUnits="userSpaceOnUse">
<stop stop-color="#5F5D9C"/>
<stop offset="1" stop-color="#E148D1"/>
</linearGradient>
<clipPath id="clip0_1_276">
<rect width="326" height="195" fill="white" transform="translate(0.5)"/>
</clipPath>
</defs>
</svg>
