<svg width="237" height="158" viewBox="0 0 237 158" fill="none" xmlns="http://www.w3.org/2000/svg">
<g clip-path="url(#clip0_1_300)">
<path fill-rule="evenodd" clip-rule="evenodd" d="M142.823 43.7128H91.6495C89.4259 43.7128 87.5862 45.4345 87.4385 47.6496L84.0797 98.0045C83.755 102.874 87.62 107.005 92.5019 107.005H141.971C146.853 107.005 150.718 102.874 150.393 98.0045L147.034 47.6496C146.886 45.4345 145.047 43.7128 142.823 43.7128Z" fill="url(#paint0_linear_1_300)" stroke="url(#paint1_linear_1_300)" stroke-width="10" stroke-linecap="round" stroke-linejoin="round"/>
<path fill-rule="evenodd" clip-rule="evenodd" d="M111.644 85.2784C111.319 85.4481 110.952 85.5233 110.586 85.4954C110.22 85.4675 109.869 85.3377 109.573 85.1207C109.277 84.9036 109.048 84.608 108.911 84.2674C108.775 83.9267 108.736 83.5545 108.8 83.1931L109.86 77.119L105.397 72.8435C105.13 72.5887 104.94 72.2637 104.849 71.9057C104.758 71.5477 104.769 71.1713 104.882 70.8197C104.996 70.468 105.206 70.1554 105.488 69.9177C105.771 69.68 106.115 69.5268 106.481 69.4758L112.677 68.5902L115.474 63.0115C115.637 62.6834 115.888 62.4074 116.199 62.2144C116.51 62.0214 116.869 61.9191 117.235 61.9191C117.601 61.9191 117.96 62.0214 118.271 62.2144C118.582 62.4074 118.833 62.6834 118.996 63.0115L121.794 68.5902L127.989 69.4758C128.355 69.5271 128.699 69.6804 128.981 69.9182C129.264 70.1559 129.474 70.4685 129.587 70.82C129.7 71.1715 129.712 71.5477 129.621 71.9056C129.53 72.2635 129.34 72.5886 129.073 72.8435L124.61 77.119L125.67 83.1944C125.734 83.5559 125.696 83.928 125.559 84.2687C125.422 84.6094 125.193 84.905 124.897 85.122C124.601 85.339 124.25 85.4688 123.884 85.4967C123.518 85.5246 123.151 85.4494 122.826 85.2797L117.235 82.3912L111.644 85.2784Z" fill="white"/>
<path d="M129.898 51.4327V34.5549C129.898 27.5634 124.231 21.8964 117.239 21.8964H117.235C110.244 21.8964 104.577 27.5634 104.577 34.5549V51.4327" stroke="url(#paint2_linear_1_300)" stroke-width="5" stroke-linecap="round" stroke-linejoin="round"/>
<path d="M49.1757 103.813C48.546 103.503 48.1497 102.82 48.2032 102.138C48.2582 101.402 48.7612 100.766 49.4735 100.56C49.6692 100.503 49.8767 100.483 50.081 100.461C51.3045 100.322 52.5297 100.205 53.7327 99.9192C54.2646 99.7907 54.7881 99.8768 55.26 100.177C55.8844 100.575 56.1622 101.161 56.0847 101.881C56.0055 102.605 55.5815 103.101 54.8987 103.36C54.7701 103.408 54.6365 103.442 54.5005 103.461C53.0967 103.669 51.6947 103.898 50.2772 104.004C49.8893 104.033 49.5222 103.987 49.1757 103.813ZM54.8334 108.815C54.5708 109.357 54.1229 109.721 53.5633 109.862C52.1871 110.203 50.797 110.52 49.3745 110.576C48.0755 110.625 47.2091 109.407 47.6352 108.196C47.879 107.502 48.4144 107.11 49.1301 107.034C50.0534 106.938 50.9492 106.734 51.8604 106.585C52.1503 106.537 52.4197 106.436 52.6962 106.347C53.3964 106.123 54.1324 106.341 54.6024 106.893C55.0588 107.431 55.1478 108.179 54.8334 108.815ZM58.8534 105.189C59.0852 104.717 59.4594 104.415 59.9589 104.266C60.7123 104.038 61.476 103.858 62.2465 103.707C62.5983 103.639 62.9346 103.541 63.2606 103.378C63.4939 103.261 63.7489 103.193 64.0096 103.179C64.2703 103.165 64.5312 103.204 64.7759 103.295C65.0206 103.386 65.2439 103.527 65.4319 103.708C65.6199 103.889 65.7686 104.107 65.8686 104.348C66.2768 105.333 65.7875 106.414 64.7526 106.802C64.6102 106.855 64.4609 106.905 64.3097 106.932C63.1668 107.132 62.0342 107.39 60.9051 107.657C60.2049 107.822 59.5821 107.66 59.0949 107.107C58.6196 106.565 58.5324 105.839 58.8534 105.189ZM60.8324 109.972C61.5855 110.37 61.8823 110.978 61.8923 111.729C61.9023 112.472 61.5642 113.045 60.9103 113.409C60.6717 113.543 60.4108 113.635 60.1467 113.7C59.2147 113.925 58.2881 114.156 57.3561 114.381C56.7623 114.521 56.1943 114.456 55.7037 114.065C55.1649 113.632 54.9335 113.057 55.0591 112.378C55.1897 111.662 55.6326 111.18 56.331 110.967C56.8716 110.805 57.4191 110.671 57.9715 110.544C58.3887 110.448 58.7781 110.33 59.1436 110.071C59.6861 109.681 60.2936 109.711 60.8324 109.972ZM71.9119 111.924C71.7265 112.304 71.4484 112.602 71.0621 112.782C70.8443 112.883 70.6229 112.974 70.393 113.031C69.6138 113.224 68.8414 113.439 68.0693 113.653C66.8988 113.977 65.8283 113.227 65.7651 112.067C65.7259 111.339 66.1346 110.686 66.8485 110.356C67.3788 110.111 67.9434 109.969 68.508 109.835C68.8101 109.763 69.0897 109.667 69.3591 109.506C70.0886 109.068 70.9104 109.175 71.5298 109.755C72.1165 110.306 72.2724 111.187 71.9119 111.924ZM38.9452 102.504C39.1511 102.127 39.4276 101.858 39.7949 101.69C40.0454 101.575 40.3063 101.491 40.5807 101.465C41.3102 101.397 42.043 101.304 42.7756 101.272C44.1039 101.216 45.0079 102.393 44.5887 103.634C44.3706 104.284 43.8832 104.666 43.2156 104.8C43.001 104.843 42.7746 104.841 42.5549 104.868C41.963 104.937 41.3657 104.964 40.7738 105.058C40.0736 105.171 39.4919 104.91 39.0837 104.328C38.6703 103.748 38.6618 103.122 38.9452 102.504ZM59.6113 95.3564C60.3078 95.7135 60.6749 96.3518 60.6215 97.0589C60.563 97.8191 60.163 98.3268 59.4628 98.6028C59.3066 98.6663 59.1331 98.7126 58.9667 98.7195C58.3165 98.7503 57.6695 98.774 57.0209 98.7755C56.6554 98.7771 56.3157 98.6586 56.0118 98.4424C55.4114 98.0045 55.1423 97.2906 55.3174 96.5888C55.4978 95.8768 56.0592 95.3296 56.7799 95.2611C57.492 95.1926 58.2127 95.1929 58.9282 95.1776C59.168 95.1731 59.4044 95.235 59.6113 95.3564ZM89.6792 123.009C89.1739 122.759 88.8561 122.211 88.899 121.665C88.9432 121.074 89.3466 120.563 89.9181 120.398C90.075 120.353 90.2417 120.336 90.4055 120.319C91.3872 120.207 92.3702 120.114 93.3353 119.884C93.7622 119.781 94.1822 119.85 94.5606 120.091C95.0618 120.411 95.2845 120.881 95.2224 121.459C95.1589 122.04 94.8187 122.437 94.2707 122.645C94.1675 122.684 94.0604 122.711 93.9513 122.726C92.825 122.893 91.7003 123.077 90.563 123.162C90.2517 123.185 89.9573 123.148 89.6792 123.009ZM94.2186 127.022C94.0079 127.457 93.6485 127.749 93.1995 127.862C92.0953 128.135 90.9801 128.389 89.8388 128.435C88.7965 128.474 88.1016 127.497 88.4431 126.525C88.6388 125.968 89.0686 125.653 89.6426 125.593C90.3834 125.516 91.102 125.352 91.8333 125.233C92.0658 125.194 92.282 125.113 92.5037 125.042C93.0654 124.862 93.6561 125.036 94.0332 125.48C94.3992 125.911 94.4708 126.511 94.2186 127.022ZM97.4439 124.112C97.6301 123.734 97.9302 123.491 98.3308 123.372C98.9354 123.189 99.5479 123.045 100.166 122.924C100.449 122.869 100.718 122.79 100.98 122.66C101.167 122.566 101.372 122.511 101.581 122.5C101.79 122.488 101.999 122.52 102.196 122.593C102.392 122.666 102.571 122.779 102.722 122.924C102.873 123.07 102.992 123.245 103.072 123.438C103.4 124.228 103.007 125.096 102.177 125.406C102.062 125.452 101.943 125.487 101.822 125.511C100.905 125.672 99.9961 125.878 99.09 126.093C98.5283 126.225 98.0285 126.095 97.6377 125.652C97.2564 125.217 97.1863 124.634 97.4439 124.112ZM99.0315 127.95C99.6359 128.269 99.8739 128.757 99.8821 129.36C99.8902 129.956 99.6187 130.416 99.0942 130.707C98.9027 130.815 98.6934 130.889 98.4814 130.941C97.7338 131.122 96.9902 131.307 96.2425 131.487C95.7662 131.6 95.3106 131.548 94.9169 131.233C94.4845 130.886 94.2989 130.425 94.3995 129.88C94.5043 129.306 94.8598 128.919 95.4202 128.749C95.8539 128.618 96.2931 128.511 96.7363 128.409C97.071 128.332 97.3836 128.237 97.6769 128.029C98.1119 127.717 98.5994 127.74 99.0315 127.95ZM107.921 129.517C107.772 129.821 107.549 130.06 107.239 130.205C107.064 130.286 106.887 130.359 106.702 130.404C106.077 130.56 105.458 130.732 104.838 130.904C103.899 131.163 103.04 130.561 102.989 129.631C102.958 129.047 103.286 128.522 103.858 128.258C104.284 128.062 104.737 127.947 105.19 127.84C105.432 127.783 105.657 127.705 105.873 127.576C106.458 127.225 107.117 127.311 107.614 127.776C108.085 128.218 108.21 128.925 107.921 129.517ZM81.4711 121.959C81.6365 121.656 81.8582 121.44 82.1529 121.305C82.3538 121.213 82.5632 121.145 82.7836 121.125C83.3687 121.07 83.9565 120.996 84.5445 120.97C85.6099 120.925 86.3354 121.869 85.9991 122.864C85.824 123.386 85.433 123.693 84.8974 123.8C84.7254 123.835 84.5437 123.833 84.3673 123.855C83.8922 123.91 83.4132 123.932 82.9382 124.008C82.3765 124.098 81.9098 123.889 81.5823 123.422C81.2505 122.957 81.2439 122.454 81.4711 121.959ZM98.0519 116.223C98.611 116.51 98.9054 117.022 98.8625 117.59C98.8156 118.2 98.4946 118.607 97.9329 118.828C97.8075 118.879 97.6685 118.916 97.535 118.922C97.0131 118.947 96.494 118.966 95.9737 118.967C95.6803 118.968 95.4078 118.873 95.1642 118.7C94.6823 118.348 94.4664 117.776 94.607 117.213C94.7518 116.641 95.2021 116.202 95.7804 116.147C96.3516 116.092 96.9299 116.092 97.5039 116.08C97.6963 116.077 97.8859 116.126 98.0519 116.223ZM136.317 121.515C135.764 121.242 135.417 120.642 135.463 120.044C135.512 119.398 135.953 118.839 136.579 118.658C136.751 118.609 136.933 118.59 137.112 118.571C138.187 118.449 139.263 118.347 140.319 118.096C140.786 117.983 141.246 118.058 141.66 118.322C142.208 118.672 142.452 119.186 142.384 119.819C142.315 120.454 141.942 120.89 141.343 121.117C141.231 121.159 141.111 121.189 140.993 121.206C139.76 121.388 138.529 121.589 137.285 121.682C136.944 121.708 136.622 121.667 136.317 121.515ZM141.286 125.907C141.055 126.383 140.662 126.702 140.17 126.826C138.962 127.125 137.741 127.404 136.492 127.453C135.351 127.497 134.591 126.426 134.965 125.363C135.179 124.754 135.649 124.409 136.277 124.343C137.088 124.259 137.875 124.08 138.675 123.949C138.93 123.907 139.166 123.818 139.409 123.74C140.024 123.543 140.67 123.734 141.083 124.219C141.483 124.691 141.561 125.348 141.286 125.907ZM144.815 122.723C145.019 122.308 145.348 122.043 145.786 121.912C146.448 121.712 147.118 121.554 147.795 121.422C148.104 121.362 148.399 121.276 148.685 121.133C148.89 121.03 149.114 120.97 149.343 120.958C149.572 120.945 149.801 120.98 150.016 121.06C150.231 121.14 150.427 121.263 150.592 121.422C150.757 121.581 150.888 121.773 150.976 121.985C151.334 122.85 150.904 123.799 149.995 124.139C149.87 124.189 149.739 124.227 149.607 124.254C148.603 124.429 147.609 124.655 146.617 124.89C146.002 125.035 145.455 124.893 145.027 124.407C144.61 123.931 144.534 123.294 144.815 122.723ZM146.553 126.923C147.214 127.272 147.475 127.806 147.484 128.466C147.493 129.118 147.196 129.622 146.622 129.941C146.412 130.058 146.183 130.14 145.951 130.197C145.133 130.394 144.319 130.597 143.501 130.794C142.979 130.918 142.481 130.86 142.05 130.517C141.577 130.137 141.373 129.632 141.483 129.035C141.598 128.407 141.987 127.984 142.601 127.797C143.075 127.654 143.556 127.537 144.041 127.425C144.407 127.341 144.749 127.237 145.07 127.01C145.547 126.668 146.08 126.694 146.553 126.923ZM156.282 128.637C156.119 128.97 155.875 129.232 155.536 129.39C155.345 129.479 155.15 129.559 154.948 129.609C154.264 129.779 153.586 129.967 152.908 130.155C151.88 130.44 150.94 129.781 150.884 128.762C150.85 128.124 151.209 127.549 151.836 127.26C152.301 127.045 152.797 126.92 153.293 126.803C153.558 126.739 153.804 126.655 154.041 126.514C154.681 126.13 155.403 126.223 155.947 126.733C156.462 127.217 156.599 127.989 156.282 128.637ZM127.334 120.366C127.515 120.034 127.758 119.798 128.08 119.65C128.3 119.549 128.529 119.475 128.77 119.453C129.411 119.393 130.054 119.312 130.698 119.283C131.864 119.234 132.658 120.268 132.29 121.357C132.098 121.928 131.67 122.264 131.084 122.381C130.896 122.419 130.697 122.417 130.504 122.441C129.984 122.502 129.46 122.526 128.94 122.608C128.325 122.708 127.814 122.478 127.456 121.967C127.093 121.458 127.085 120.908 127.334 120.366ZM145.481 114.089C146.093 114.402 146.415 114.963 146.368 115.584C146.316 116.251 145.965 116.697 145.351 116.939C145.213 116.995 145.061 117.036 144.915 117.042C144.344 117.069 143.776 117.09 143.206 117.091C142.885 117.092 142.587 116.988 142.32 116.799C141.793 116.414 141.557 115.787 141.71 115.171C141.869 114.546 142.362 114.065 142.995 114.005C143.62 113.945 144.253 113.945 144.881 113.932C145.092 113.928 145.299 113.982 145.481 114.089ZM172.211 101.824C171.582 101.513 171.185 100.83 171.239 100.148C171.294 99.4123 171.797 98.7758 172.509 98.5701C172.705 98.5135 172.913 98.493 173.117 98.4706C174.34 98.3321 175.565 98.2157 176.769 97.9295C177.301 97.801 177.824 97.8871 178.296 98.1873C178.92 98.5857 179.198 99.1708 179.12 99.8916C179.041 100.616 178.617 101.112 177.934 101.37C177.806 101.418 177.672 101.452 177.536 101.472C176.132 101.679 174.73 101.908 173.313 102.014C172.925 102.043 172.558 101.997 172.211 101.824ZM177.869 106.825C177.606 107.368 177.159 107.731 176.599 107.872C175.223 108.213 173.833 108.53 172.41 108.586C171.111 108.636 170.245 107.417 170.671 106.206C170.915 105.512 171.45 105.12 172.166 105.044C173.089 104.949 173.985 104.745 174.896 104.595C175.186 104.548 175.456 104.446 175.732 104.357C176.432 104.133 177.168 104.351 177.638 104.904C178.094 105.441 178.183 106.189 177.869 106.825ZM181.889 103.199C182.121 102.727 182.495 102.425 182.995 102.276C183.748 102.048 184.512 101.868 185.282 101.717C185.634 101.649 185.97 101.551 186.296 101.388C186.53 101.271 186.785 101.203 187.046 101.189C187.306 101.175 187.567 101.214 187.812 101.306C188.056 101.397 188.28 101.537 188.468 101.718C188.656 101.899 188.804 102.117 188.905 102.358C189.312 103.344 188.823 104.425 187.788 104.812C187.646 104.865 187.497 104.915 187.346 104.942C186.203 105.143 185.07 105.4 183.941 105.667C183.241 105.832 182.618 105.67 182.131 105.118C181.656 104.575 181.568 103.849 181.889 103.199ZM183.868 107.982C184.621 108.38 184.918 108.988 184.928 109.739C184.938 110.483 184.6 111.056 183.946 111.419C183.707 111.553 183.447 111.645 183.182 111.711C182.25 111.935 181.324 112.167 180.392 112.391C179.798 112.532 179.23 112.466 178.74 112.075C178.201 111.642 177.969 111.067 178.095 110.388C178.225 109.672 178.668 109.19 179.367 108.978C179.907 108.815 180.455 108.681 181.007 108.554C181.424 108.458 181.814 108.34 182.18 108.081C182.722 107.692 183.329 107.721 183.868 107.982ZM194.948 109.935C194.762 110.314 194.484 110.612 194.098 110.792C193.88 110.894 193.659 110.984 193.429 111.041C192.649 111.235 191.877 111.449 191.105 111.663C189.934 111.987 188.864 111.237 188.801 110.077C188.762 109.349 189.17 108.696 189.884 108.366C190.414 108.121 190.979 107.979 191.544 107.845C191.846 107.773 192.125 107.677 192.395 107.516C193.124 107.079 193.946 107.185 194.565 107.765C195.152 108.316 195.308 109.197 194.948 109.935ZM161.981 100.515C162.187 100.137 162.463 99.8679 162.831 99.6998C163.081 99.5848 163.342 99.5008 163.617 99.4752C164.346 99.4068 165.079 99.3143 165.811 99.2819C167.14 99.2256 168.044 100.403 167.625 101.644C167.406 102.294 166.919 102.677 166.251 102.81C166.037 102.853 165.81 102.851 165.591 102.879C164.999 102.947 164.401 102.974 163.809 103.069C163.109 103.182 162.528 102.921 162.119 102.339C161.706 101.759 161.698 101.132 161.981 100.515ZM182.647 93.3664C183.343 93.7238 183.711 94.3621 183.657 95.0691C183.599 95.8294 183.199 96.3371 182.498 96.6131C182.342 96.6765 182.169 96.7229 182.003 96.7297C181.352 96.7603 180.705 96.7842 180.057 96.7858C179.691 96.7874 179.351 96.6689 179.048 96.4527C178.447 96.0148 178.178 95.3009 178.353 94.5991C178.534 93.887 179.095 93.3398 179.816 93.2714C180.528 93.2029 181.248 93.2031 181.964 93.1879C182.204 93.1834 182.44 93.2452 182.647 93.3664Z" fill="#E1E4E5"/>
<path d="M173.842 97.9418C173.703 97.5179 173.41 97.1771 173.187 96.8013C171.535 93.9737 170.119 91.0367 169.035 87.9383C168.375 86.0547 167.724 84.1666 167.283 82.2174C166.894 80.5042 166.557 78.7822 166.382 77.0297C166.291 76.1207 166.203 75.2162 166.172 74.3027C166.155 73.8134 166.072 73.3238 166.111 72.8343C166.185 71.9427 166.159 71.0423 166.395 70.1683C166.439 70.0066 166.483 69.8407 166.548 69.6877C166.92 68.7916 167.754 68.6126 168.463 69.2638C168.803 69.5785 169.048 69.9629 169.275 70.3606C170.328 72.2005 171.203 74.1278 171.976 76.0989C173.165 79.1232 174.236 82.1911 175.232 85.281C175.411 85.8403 175.586 86.4041 175.84 86.9592C175.84 86.6577 175.883 86.3473 175.831 86.0547C175.748 85.6307 175.774 85.211 175.748 84.7915C175.586 82.1869 175.608 79.5778 175.674 76.9686C175.7 75.9285 175.796 74.8796 175.918 73.8395C176.001 73.1358 176.063 72.4277 176.159 71.7286C176.443 69.7051 176.722 67.6772 177.479 65.7588C177.627 65.3786 177.824 65.0202 178.112 64.7273C178.694 64.1285 179.415 64.1722 179.943 64.8279C180.455 65.4615 180.704 66.222 180.922 66.9867C181.193 67.9482 181.333 68.9317 181.46 69.9237C181.674 71.6019 181.722 73.2888 181.783 74.9802C181.823 76.1297 181.866 77.2833 181.831 78.4328C181.792 79.7176 181.796 81.0069 181.726 82.2917C181.657 83.5765 181.613 84.8571 181.547 86.1419C181.547 86.1769 181.556 86.2074 181.569 86.2862C181.744 86.002 181.766 85.7092 181.831 85.4382C182.64 82.0252 183.676 78.6819 185.044 75.4521C185.891 73.455 186.831 71.5013 188.129 69.7444C188.653 69.032 189.213 68.3503 189.986 67.8958C190.397 67.6553 190.83 67.4676 191.332 67.5987C191.857 67.7341 192.163 68.0925 192.346 68.5775C192.609 69.2725 192.674 69.9979 192.613 70.7234C192.518 71.8677 192.359 73.0057 192.137 74.1323C191.73 76.195 191.127 78.201 190.388 80.1676C189.025 83.8082 187.46 87.3745 185.961 90.9669C185.896 91.1199 185.791 91.264 185.826 91.4475C185.774 91.4562 185.747 91.487 185.747 91.5349C185.747 91.5481 185.778 91.5613 185.795 91.5744C185.808 91.5307 185.817 91.4912 185.83 91.4475C186.119 91.2466 186.254 90.9232 186.442 90.6522C187.469 89.1794 188.527 87.7327 189.689 86.3649C190.821 85.0364 191.997 83.7471 193.496 82.8117C194.029 82.4797 194.575 82.1737 195.235 82.1782C195.982 82.1824 196.49 82.5189 196.726 83.2402C196.879 83.7076 196.918 84.1798 196.861 84.6822C196.669 86.343 195.978 87.7982 195.1 89.1749C193.876 91.0891 192.46 92.8548 190.944 94.5461C189.423 96.2417 187.701 97.7104 185.922 99.1176C184.344 100.367 182.793 101.652 181.233 102.92C180.813 103.261 180.385 103.593 179.935 103.894C179.485 104.2 179.004 104.274 178.488 104.13C176.434 103.545 174.415 102.885 172.523 101.871C171.041 101.076 169.664 100.131 168.366 99.0607C167.121 98.0379 165.923 96.9672 164.826 95.7872C163.86 94.7429 162.951 93.6503 162.292 92.3784C162.082 91.9763 161.986 91.5568 162.029 91.1067C162.073 90.6522 162.418 90.2675 162.873 90.2238C163.257 90.189 163.646 90.1932 164.027 90.3157C165.045 90.6435 165.902 91.2508 166.714 91.9152C168.519 93.3967 170.311 94.8914 172.024 96.478C172.531 96.9499 173.06 97.3999 173.58 97.8589C173.646 97.9158 173.711 97.9682 173.799 97.9768C173.821 98.0556 173.851 98.1212 173.939 98.1472C173.943 98.1604 173.947 98.1736 173.956 98.1823C173.96 98.1867 173.974 98.1867 173.982 98.1867C173.965 98.1736 173.947 98.1649 173.93 98.1517C173.952 98.0688 173.921 97.9987 173.842 97.9418ZM165.817 126.36C165.753 126.165 165.618 126.007 165.515 125.834C164.754 124.532 164.102 123.179 163.602 121.751C163.298 120.883 162.998 120.013 162.795 119.115C162.616 118.326 162.461 117.533 162.38 116.725C162.338 116.307 162.298 115.89 162.284 115.469C162.275 115.244 162.237 115.018 162.255 114.793C162.289 114.382 162.278 113.967 162.386 113.564C162.406 113.49 162.426 113.413 162.457 113.343C162.628 112.93 163.012 112.848 163.339 113.147C163.496 113.293 163.608 113.47 163.713 113.653C164.198 114.5 164.601 115.388 164.957 116.297C165.505 117.69 165.998 119.103 166.457 120.527C166.54 120.785 166.62 121.044 166.737 121.3C166.737 121.161 166.757 121.018 166.733 120.883C166.695 120.688 166.707 120.494 166.695 120.301C166.62 119.101 166.63 117.899 166.661 116.697C166.673 116.218 166.717 115.735 166.773 115.256C166.812 114.932 166.84 114.605 166.884 114.283C167.015 113.351 167.144 112.417 167.492 111.533C167.561 111.358 167.651 111.193 167.784 111.058C168.052 110.782 168.384 110.802 168.628 111.104C168.864 111.396 168.978 111.746 169.079 112.099C169.204 112.542 169.268 112.994 169.327 113.452C169.425 114.225 169.447 115.002 169.476 115.781C169.494 116.311 169.514 116.842 169.498 117.372C169.479 117.964 169.482 118.558 169.449 119.15C169.417 119.742 169.397 120.331 169.367 120.923C169.367 120.94 169.371 120.954 169.377 120.99C169.457 120.859 169.467 120.724 169.498 120.599C169.87 119.027 170.347 117.486 170.978 115.999C171.368 115.079 171.801 114.178 172.399 113.369C172.641 113.041 172.898 112.727 173.255 112.517C173.444 112.407 173.643 112.32 173.875 112.38C174.117 112.443 174.257 112.608 174.342 112.831C174.463 113.152 174.493 113.486 174.465 113.82C174.421 114.347 174.348 114.872 174.245 115.391C174.058 116.341 173.78 117.265 173.44 118.171C172.812 119.848 172.091 121.491 171.401 123.146C171.37 123.217 171.322 123.283 171.338 123.368C171.314 123.372 171.302 123.386 171.302 123.408C171.302 123.414 171.316 123.42 171.324 123.426C171.33 123.406 171.334 123.388 171.34 123.368C171.473 123.275 171.535 123.126 171.622 123.001C172.095 122.323 172.582 121.656 173.118 121.026C173.639 120.414 174.181 119.82 174.871 119.389C175.117 119.236 175.369 119.095 175.673 119.097C176.017 119.099 176.251 119.254 176.36 119.587C176.43 119.802 176.448 120.019 176.422 120.251C176.333 121.016 176.015 121.687 175.61 122.321C175.047 123.203 174.394 124.016 173.696 124.795C172.995 125.577 172.202 126.253 171.382 126.901C170.656 127.477 169.941 128.069 169.222 128.653C169.03 128.812 168.83 128.962 168.624 129.102C168.416 129.243 168.195 129.277 167.957 129.211C167.011 128.941 166.081 128.637 165.209 128.17C164.526 127.803 163.892 127.369 163.294 126.875C162.721 126.404 162.169 125.911 161.663 125.367C161.218 124.886 160.799 124.383 160.496 123.797C160.399 123.611 160.355 123.418 160.375 123.211C160.395 123.001 160.554 122.824 160.763 122.804C160.941 122.788 161.12 122.79 161.295 122.846C161.764 122.997 162.159 123.277 162.533 123.583C163.365 124.266 164.19 124.954 164.979 125.685C165.213 125.903 165.457 126.11 165.696 126.322C165.726 126.348 165.757 126.372 165.797 126.376C165.807 126.412 165.821 126.442 165.861 126.455C165.863 126.46 165.866 126.466 165.869 126.471C165.872 126.472 165.878 126.472 165.882 126.472C165.873 126.467 165.866 126.462 165.857 126.456C165.867 126.418 165.853 126.386 165.817 126.36ZM113.94 130.31C113.876 130.115 113.741 129.957 113.638 129.784C112.877 128.482 112.225 127.129 111.726 125.701C111.422 124.833 111.122 123.963 110.918 123.065C110.739 122.276 110.584 121.483 110.504 120.675C110.461 120.257 110.421 119.84 110.407 119.419C110.399 119.194 110.361 118.968 110.379 118.743C110.413 118.332 110.401 117.917 110.509 117.514C110.53 117.44 110.55 117.363 110.58 117.293C110.751 116.88 111.136 116.798 111.462 117.097C111.619 117.243 111.732 117.42 111.836 117.603C112.322 118.45 112.724 119.338 113.081 120.247C113.628 121.64 114.122 123.053 114.581 124.477C114.663 124.735 114.744 124.994 114.86 125.25C114.86 125.111 114.881 124.968 114.857 124.833C114.818 124.638 114.83 124.444 114.818 124.251C114.744 123.051 114.754 121.849 114.784 120.647C114.796 120.168 114.84 119.685 114.897 119.206C114.935 118.882 114.963 118.555 115.008 118.233C115.139 117.301 115.267 116.367 115.616 115.483C115.684 115.308 115.775 115.143 115.907 115.008C116.175 114.732 116.508 114.752 116.751 115.054C116.987 115.346 117.101 115.696 117.202 116.049C117.327 116.492 117.391 116.944 117.45 117.402C117.549 118.175 117.571 118.952 117.599 119.731C117.617 120.261 117.637 120.792 117.621 121.322C117.603 121.914 117.605 122.508 117.573 123.1C117.54 123.692 117.52 124.281 117.49 124.873C117.49 124.89 117.494 124.904 117.5 124.94C117.581 124.809 117.591 124.674 117.621 124.549C117.994 122.977 118.471 121.436 119.101 119.949C119.491 119.029 119.924 118.128 120.522 117.319C120.764 116.991 121.022 116.677 121.378 116.467C121.567 116.357 121.767 116.27 121.998 116.33C122.24 116.393 122.381 116.558 122.465 116.781C122.586 117.102 122.616 117.436 122.588 117.77C122.544 118.297 122.471 118.822 122.369 119.341C122.181 120.291 121.904 121.215 121.563 122.121C120.935 123.798 120.214 125.441 119.524 127.096C119.494 127.167 119.445 127.233 119.461 127.318C119.437 127.322 119.425 127.336 119.425 127.358C119.425 127.364 119.439 127.37 119.447 127.376C119.453 127.356 119.457 127.338 119.463 127.318C119.596 127.225 119.659 127.076 119.745 126.951C120.218 126.273 120.706 125.606 121.241 124.976C121.763 124.364 122.304 123.77 122.995 123.339C123.241 123.186 123.492 123.045 123.796 123.047C124.141 123.049 124.374 123.204 124.483 123.537C124.553 123.752 124.571 123.969 124.545 124.201C124.457 124.966 124.138 125.637 123.734 126.271C123.17 127.153 122.518 127.966 121.819 128.745C121.118 129.527 120.325 130.203 119.506 130.851C118.779 131.427 118.064 132.019 117.345 132.603C117.153 132.762 116.953 132.912 116.747 133.052C116.54 133.193 116.318 133.227 116.081 133.161C115.134 132.891 114.204 132.587 113.332 132.12C112.65 131.753 112.016 131.319 111.418 130.825C110.844 130.354 110.292 129.861 109.787 129.317C109.342 128.836 108.923 128.333 108.619 127.747C108.522 127.561 108.478 127.368 108.498 127.161C108.518 126.951 108.677 126.774 108.887 126.754C109.064 126.738 109.243 126.74 109.418 126.796C109.887 126.947 110.282 127.227 110.657 127.533C111.488 128.216 112.314 128.904 113.103 129.635C113.336 129.853 113.58 130.06 113.82 130.272C113.85 130.298 113.88 130.322 113.92 130.326C113.93 130.362 113.945 130.392 113.985 130.405C113.986 130.41 113.989 130.416 113.993 130.421C113.995 130.422 114.001 130.422 114.005 130.422C113.997 130.417 113.989 130.412 113.981 130.406C113.991 130.368 113.977 130.336 113.94 130.31ZM67.857 129.256C67.7928 129.061 67.6577 128.904 67.555 128.731C66.794 127.428 66.1417 126.075 65.6424 124.648C65.3383 123.78 65.0383 122.91 64.835 122.012C64.6557 121.223 64.5006 120.429 64.4203 119.622C64.3779 119.203 64.3376 118.787 64.3236 118.366C64.3155 118.14 64.2773 117.915 64.2952 117.689C64.3294 117.278 64.3176 116.864 64.4261 116.461C64.4464 116.386 64.4664 116.31 64.4966 116.24C64.6678 115.827 65.0523 115.744 65.3785 116.044C65.5355 116.189 65.6485 116.366 65.753 116.549C66.2383 117.397 66.641 118.285 66.9973 119.193C67.545 120.587 68.0382 122 68.4975 123.424C68.5799 123.681 68.6605 123.941 68.7771 124.197C68.7771 124.058 68.7974 123.915 68.7732 123.78C68.735 123.585 68.7471 123.391 68.735 123.198C68.6605 121.998 68.6705 120.796 68.7008 119.594C68.7129 119.115 68.7571 118.631 68.8135 118.152C68.8517 117.828 68.8798 117.502 68.9243 117.18C69.0552 116.247 69.184 115.313 69.5324 114.429C69.6008 114.254 69.6914 114.089 69.8241 113.954C70.092 113.678 70.4243 113.699 70.6679 114.001C70.9036 114.292 71.0181 114.643 71.119 114.995C71.2438 115.438 71.308 115.891 71.3665 116.348C71.4652 117.121 71.4874 117.899 71.5155 118.678C71.5337 119.207 71.5537 119.739 71.5377 120.269C71.5195 120.86 71.5216 121.454 71.4895 122.046C71.4571 122.638 71.4371 123.228 71.4068 123.82C71.4068 123.836 71.4107 123.85 71.4168 123.886C71.4974 123.756 71.5074 123.621 71.5377 123.496C71.9103 121.924 72.3874 120.383 73.0176 118.895C73.4081 117.975 73.841 117.075 74.4391 116.266C74.6808 115.938 74.9383 115.623 75.2949 115.414C75.484 115.303 75.6833 115.217 75.915 115.277C76.1565 115.339 76.2974 115.505 76.3819 115.728C76.5028 116.048 76.5331 116.383 76.5049 116.717C76.461 117.244 76.3877 117.768 76.2853 118.287C76.0981 119.238 75.8202 120.162 75.48 121.068C74.8517 122.745 74.131 124.388 73.4405 126.043C73.4102 126.113 73.3618 126.18 73.3781 126.264C73.3539 126.269 73.3418 126.283 73.3418 126.305C73.3418 126.311 73.3557 126.317 73.3639 126.323C73.3699 126.303 73.3739 126.285 73.3799 126.264C73.5129 126.172 73.5753 126.023 73.662 125.898C74.1349 125.219 74.6223 124.553 75.158 123.923C75.6794 123.311 76.221 122.717 76.9115 122.286C77.1572 122.133 77.4089 121.992 77.7128 121.994C78.0573 121.996 78.2908 122.151 78.3996 122.483C78.4699 122.699 78.4881 122.916 78.462 123.148C78.3733 123.913 78.0552 124.583 77.6504 125.217C77.0866 126.099 76.4343 126.913 75.7357 127.692C75.035 128.473 74.2418 129.15 73.4223 129.798C72.6955 130.374 71.9806 130.966 71.2619 131.55C71.0696 131.708 70.87 131.858 70.6639 131.999C70.4564 132.14 70.2349 132.174 69.9974 132.107C69.051 131.838 68.1209 131.534 67.249 131.067C66.5665 130.7 65.9323 130.265 65.3343 129.772C64.7605 129.301 64.2088 128.807 63.7035 128.264C63.2585 127.783 62.8395 127.279 62.5356 126.693C62.439 126.508 62.3947 126.315 62.4147 126.107C62.435 125.898 62.5941 125.721 62.8034 125.701C62.9806 125.685 63.1597 125.687 63.3348 125.743C63.8041 125.894 64.1986 126.174 64.5733 126.48C65.4046 127.162 66.2302 127.851 67.0194 128.582C67.253 128.799 67.4968 129.007 67.7362 129.218C67.7665 129.244 67.7967 129.268 67.837 129.272C67.847 129.309 67.8613 129.339 67.9013 129.351C67.9028 129.357 67.9056 129.363 67.9094 129.367C67.9116 129.369 67.9176 129.369 67.9216 129.369C67.9134 129.363 67.9055 129.359 67.8973 129.353C67.9073 129.315 67.8934 129.283 67.857 129.256ZM53.128 97.9418C52.9882 97.5179 52.6954 97.1771 52.4723 96.8013C50.8204 93.9737 49.4045 91.0367 48.3206 87.9383C47.6607 86.0547 47.0095 84.1666 46.5681 82.2174C46.1792 80.5042 45.8426 78.7822 45.6678 77.0297C45.5761 76.1207 45.4887 75.2162 45.4582 74.3027C45.4405 73.8134 45.3576 73.3238 45.3968 72.8343C45.4711 71.9427 45.445 71.0423 45.681 70.1683C45.7247 70.0066 45.7684 69.8407 45.8339 69.6877C46.2052 68.7916 47.04 68.6126 47.7481 69.2638C48.0889 69.5785 48.3338 69.9629 48.561 70.3606C49.6144 72.2005 50.4884 74.1278 51.2618 76.0989C52.4507 79.1232 53.5214 82.1911 54.5179 85.281C54.697 85.8403 54.8718 86.4041 55.1251 86.9592C55.1251 86.6577 55.1689 86.3473 55.1164 86.0547C55.0335 85.6307 55.0596 85.211 55.0335 84.7915C54.8718 82.1869 54.8937 79.5778 54.9592 76.9686C54.9853 75.9285 55.0814 74.8796 55.2039 73.8395C55.2868 73.1358 55.3482 72.4277 55.4443 71.7286C55.7284 69.7051 56.0081 67.6772 56.7641 65.7588C56.9126 65.3786 57.1094 65.0202 57.3977 64.7273C57.9791 64.1285 58.7002 64.1722 59.2289 64.8279C59.7403 65.4615 59.9894 66.222 60.208 66.9867C60.479 67.9482 60.6188 68.9317 60.7455 69.9237C60.9596 71.6019 61.0077 73.2888 61.0688 74.9802C61.1083 76.1297 61.1521 77.2833 61.117 78.4328C61.0775 79.7176 61.082 81.0069 61.0122 82.2917C60.9422 83.5765 60.8985 84.8571 60.8329 86.1419C60.8329 86.1769 60.8416 86.2074 60.8547 86.2862C61.0296 86.002 61.0515 85.7092 61.117 85.4382C61.9255 82.0252 62.9611 78.6819 64.3292 75.4521C65.1771 73.455 66.1167 71.5013 67.4146 69.7444C67.9392 69.032 68.4985 68.3503 69.2719 67.8958C69.6827 67.6553 70.1154 67.4676 70.6181 67.5987C71.1427 67.7341 71.4484 68.0925 71.6319 68.5775C71.8942 69.2725 71.9598 69.9979 71.8987 70.7234C71.8033 71.8677 71.6443 73.0057 71.4223 74.1323C71.0157 76.195 70.4127 78.201 69.674 80.1676C68.3105 83.8082 66.746 87.3745 65.2469 90.9669C65.1813 91.1199 65.0765 91.264 65.1115 91.4475C65.0591 91.4562 65.0328 91.487 65.0328 91.5349C65.0328 91.5481 65.0633 91.5613 65.081 91.5744C65.0939 91.5307 65.1028 91.4912 65.1157 91.4475C65.4044 91.2466 65.5397 90.9232 65.7277 90.6522C66.7547 89.1794 67.8123 87.7327 68.9749 86.3649C70.1067 85.0364 71.2825 83.7471 72.7814 82.8117C73.3146 82.4797 73.8608 82.1737 74.5207 82.1782C75.268 82.1824 75.7752 82.5189 76.0112 83.2402C76.1642 83.7076 76.2034 84.1798 76.1465 84.6822C75.9543 86.343 75.2638 87.7982 74.3853 89.1749C73.1616 91.0891 71.7457 92.8548 70.2291 94.5461C68.7081 96.2417 66.9865 97.7104 65.2076 99.1176C63.63 100.367 62.0785 101.652 60.5182 102.92C60.0987 103.261 59.6703 103.593 59.2202 103.894C58.7702 104.2 58.2894 104.274 57.7737 104.13C55.7195 103.545 53.7005 102.885 51.8082 101.871C50.3267 101.076 48.95 100.131 47.652 99.0607C46.4064 98.0379 45.2091 96.9672 44.112 95.7872C43.1461 94.7429 42.2371 93.6503 41.5772 92.3784C41.3673 91.9763 41.2712 91.5568 41.3149 91.1067C41.3586 90.6522 41.7038 90.2675 42.1583 90.2238C42.5431 90.189 42.932 90.1932 43.3123 90.3157C44.3306 90.6435 45.1872 91.2508 45.9998 91.9152C47.805 93.3967 49.5967 94.8914 51.31 96.478C51.8169 96.9499 52.3457 97.3999 52.8657 97.8589C52.9313 97.9158 52.9969 97.9682 53.0843 97.9768C53.1062 98.0556 53.1367 98.1212 53.2241 98.1472C53.2286 98.1604 53.2328 98.1736 53.2415 98.1823C53.246 98.1867 53.2592 98.1867 53.2679 98.1867C53.2505 98.1736 53.2328 98.1649 53.2154 98.1517C53.2373 98.0688 53.2068 97.9987 53.128 97.9418Z" fill="url(#paint3_linear_1_300)"/>
<path d="M51.5693 50.8044L57.976 44.6842M168.967 51.4674L175.374 45.3476M70.4725 32.2328L76.8791 26.1129M151.059 28.9164L157.466 22.7965M58.1211 50.7351C58.258 50.8784 58.253 51.1051 58.1095 51.2405C58.0756 51.273 58.0356 51.2986 57.9918 51.3156C57.948 51.3327 57.9013 51.3409 57.8543 51.3398C57.8073 51.3387 57.761 51.3284 57.718 51.3093C57.675 51.2903 57.6363 51.2629 57.6039 51.2289C57.467 51.0856 57.4722 50.8589 57.6155 50.7235C57.6494 50.6909 57.6893 50.6654 57.7331 50.6483C57.7769 50.6312 57.8237 50.623 57.8707 50.6241C57.9177 50.6251 57.964 50.6355 58.007 50.6546C58.05 50.6736 58.0887 50.701 58.1211 50.7351ZM175.519 51.3982C175.656 51.5417 175.651 51.7684 175.508 51.9038C175.474 51.9364 175.434 51.9619 175.39 51.9789C175.346 51.996 175.299 52.0042 175.252 52.0031C175.206 52.0021 175.159 51.9917 175.116 51.9727C175.073 51.9536 175.034 51.9263 175.002 51.8922C174.97 51.8583 174.944 51.8183 174.927 51.7745C174.91 51.7307 174.902 51.684 174.903 51.637C174.904 51.59 174.914 51.5437 174.933 51.5007C174.952 51.4577 174.98 51.419 175.014 51.3866C175.156 51.2497 175.382 51.2549 175.519 51.3982ZM77.0242 32.1635C77.1611 32.307 77.1561 32.5335 77.0126 32.6691C76.8694 32.8061 76.6426 32.8008 76.507 32.6575C76.3701 32.514 76.3753 32.2876 76.5186 32.1519C76.6605 32.015 76.8873 32.0203 77.0242 32.1635ZM157.611 28.8474C157.748 28.9906 157.743 29.2174 157.599 29.3527C157.566 29.3853 157.526 29.4109 157.482 29.4279C157.438 29.445 157.391 29.4533 157.344 29.4522C157.297 29.4511 157.251 29.4407 157.208 29.4217C157.165 29.4026 157.126 29.3752 157.094 29.3411C156.957 29.1979 156.962 28.9711 157.105 28.8358C157.139 28.8032 157.179 28.7776 157.223 28.7605C157.267 28.7435 157.314 28.7352 157.361 28.7363C157.408 28.7374 157.454 28.7478 157.497 28.7668C157.54 28.7859 157.579 28.8133 157.611 28.8474ZM51.943 44.26C52.0799 44.4033 52.0747 44.63 51.9314 44.7653C51.8803 44.8143 51.8157 44.847 51.746 44.8593C51.6763 44.8716 51.6044 44.8629 51.5396 44.8344C51.4748 44.8058 51.4199 44.7587 51.3819 44.6989C51.3439 44.6392 51.3245 44.5695 51.3261 44.4987C51.3278 44.4279 51.3504 44.3591 51.3911 44.3012C51.4318 44.2432 51.4887 44.1987 51.5548 44.1731C51.6208 44.1476 51.693 44.1422 51.7621 44.1576C51.8312 44.1731 51.8942 44.2087 51.943 44.26ZM169.341 44.9231C169.478 45.0666 169.473 45.2931 169.329 45.4287C169.186 45.5656 168.959 45.5604 168.824 45.4171C168.758 45.3485 168.723 45.2567 168.725 45.1619C168.727 45.0671 168.767 44.9771 168.835 44.9115C168.904 44.8461 168.996 44.8106 169.091 44.8128C169.185 44.815 169.275 44.8546 169.341 44.9231ZM70.8461 25.6884C70.9831 25.8319 70.9778 26.0584 70.8345 26.194C70.7834 26.2429 70.7189 26.2755 70.6493 26.2877C70.5796 26.2999 70.5079 26.2912 70.4432 26.2626C70.3784 26.234 70.3237 26.1869 70.2857 26.1272C70.2478 26.0676 70.2284 25.9979 70.23 25.9272C70.2316 25.8565 70.2542 25.7879 70.2948 25.73C70.3355 25.6721 70.3923 25.6276 70.4583 25.602C70.5242 25.5764 70.5963 25.571 70.6653 25.5864C70.7344 25.6018 70.7973 25.6373 70.8461 25.6884ZM151.433 22.372C151.57 22.5155 151.565 22.7423 151.421 22.8776C151.37 22.9265 151.306 22.959 151.236 22.9713C151.166 22.9835 151.095 22.9747 151.03 22.9462C150.965 22.9176 150.911 22.8705 150.873 22.8108C150.835 22.7511 150.815 22.6815 150.817 22.6108C150.818 22.5401 150.841 22.4715 150.882 22.4136C150.922 22.3557 150.979 22.3111 151.045 22.2856C151.111 22.26 151.183 22.2546 151.252 22.27C151.321 22.2854 151.384 22.3209 151.433 22.372Z" stroke="#E1E4E5" stroke-width="2" stroke-linecap="round" stroke-linejoin="round"/>
</g>
<defs>
<linearGradient id="paint0_linear_1_300" x1="98.1352" y1="31.6873" x2="165.102" y2="51.4034" gradientUnits="userSpaceOnUse">
<stop stop-color="#5F5D9C"/>
<stop offset="1" stop-color="#E148D1"/>
</linearGradient>
<linearGradient id="paint1_linear_1_300" x1="98.1352" y1="31.6873" x2="165.102" y2="51.4034" gradientUnits="userSpaceOnUse">
<stop stop-color="#5F5D9C"/>
<stop offset="1" stop-color="#E148D1"/>
</linearGradient>
<linearGradient id="paint2_linear_1_300" x1="109.948" y1="16.2845" x2="136.198" y2="22.6044" gradientUnits="userSpaceOnUse">
<stop stop-color="#5F5D9C"/>
<stop offset="1" stop-color="#E148D1"/>
</linearGradient>
<linearGradient id="paint3_linear_1_300" x1="74.3066" y1="51.2169" x2="195.99" y2="128.397" gradientUnits="userSpaceOnUse">
<stop stop-color="#5F5D9C"/>
<stop offset="1" stop-color="#E148D1"/>
</linearGradient>
<clipPath id="clip0_1_300">
<rect width="237" height="158" fill="white"/>
</clipPath>
</defs>
</svg>
