<svg width="28" height="29" viewBox="0 0 28 29" fill="none" xmlns="http://www.w3.org/2000/svg">
<g clip-path="url(#clip0_1_262)">
<path d="M21 14.5C17.1337 14.5 14 17.6337 14 21.5C14 25.3663 17.1337 28.5 21 28.5C24.8663 28.5 28 25.3663 28 21.5C28 17.6337 24.8663 14.5 21 14.5ZM24.1582 23.0085C24.6143 23.4647 24.6143 24.202 24.1582 24.6582C23.9307 24.8857 23.632 25 23.3333 25C23.0347 25 22.736 24.8857 22.5085 24.6582L21 23.1497L19.4915 24.6582C19.264 24.8857 18.9653 25 18.6667 25C18.368 25 18.0693 24.8857 17.8418 24.6582C17.3857 24.202 17.3857 23.4647 17.8418 23.0085L19.3503 21.5L17.8418 19.9915C17.3857 19.5353 17.3857 18.798 17.8418 18.3418C18.298 17.8857 19.0353 17.8857 19.4915 18.3418L21 19.8503L22.5085 18.3418C22.9647 17.8857 23.702 17.8857 24.1582 18.3418C24.6143 18.798 24.6143 19.5353 24.1582 19.9915L22.6497 21.5L24.1582 23.0085ZM14 8.66667V1.03667C15.0652 1.44033 16.0452 2.06217 16.8758 2.89167L20.9405 6.95867C21.7712 7.78817 22.393 8.76817 22.7967 9.83333H15.1667C14.5227 9.83333 14 9.3095 14 8.66667ZM14.8412 28.5H5.83333C2.61683 28.5 0 25.8832 0 22.6667V6.33333C0 3.11683 2.61683 0.5 5.83333 0.5H11.1008C11.291 0.5 11.4788 0.515167 11.6667 0.528V8.66667C11.6667 10.5963 13.237 12.1667 15.1667 12.1667H21C15.8457 12.1667 11.6667 16.3457 11.6667 21.5C11.6667 24.2918 12.8987 26.7897 14.8412 28.5Z" fill="url(#paint0_linear_1_262)"/>
</g>
<defs>
<linearGradient id="paint0_linear_1_262" x1="5.93939" y1="-4.82" x2="34.4038" y2="3.17394" gradientUnits="userSpaceOnUse">
<stop stop-color="#5F5D9C"/>
<stop offset="1" stop-color="#E148D1"/>
</linearGradient>
<clipPath id="clip0_1_262">
<rect width="28" height="28" fill="white" transform="translate(0 0.5)"/>
</clipPath>
</defs>
</svg>
