<svg width="28" height="29" viewBox="0 0 28 29" fill="none" xmlns="http://www.w3.org/2000/svg">
<g clip-path="url(#clip0_1_255)">
<path d="M16.3333 8.66667V1.03667C17.3985 1.44033 18.3785 2.06217 19.2092 2.89167L23.2738 6.95867C24.1045 7.78817 24.7263 8.76817 25.13 9.83333H17.5C16.856 9.83333 16.3333 9.3095 16.3333 8.66667ZM25.6667 12.7325V22.6667C25.6667 25.8832 23.0498 28.5 19.8333 28.5H8.16666C4.95016 28.5 2.33333 25.8832 2.33333 22.6667V6.33333C2.33333 3.11683 4.95016 0.5 8.16666 0.5H13.4342C13.6243 0.5 13.8122 0.515167 14 0.528V8.66667C14 10.5963 15.5703 12.1667 17.5 12.1667H25.6387C25.6515 12.3545 25.6667 12.5423 25.6667 12.7325ZM10.5 21.5C10.493 19.974 8.17366 19.9752 8.16666 21.5V23.8333C8.17366 25.3593 10.493 25.3582 10.5 23.8333V21.5ZM15.1667 15.6667C15.1597 14.1407 12.8403 14.1418 12.8333 15.6667V23.8333C12.8403 25.3593 15.1597 25.3582 15.1667 23.8333V15.6667ZM19.8333 19.1667C19.8263 17.6407 17.5058 17.6418 17.5 19.1667V23.8333C17.507 25.3593 19.8275 25.3582 19.8333 23.8333V19.1667Z" fill="url(#paint0_linear_1_255)"/>
</g>
<defs>
<linearGradient id="paint0_linear_1_255" x1="7.28282" y1="-4.82" x2="31.5451" y2="0.858181" gradientUnits="userSpaceOnUse">
<stop stop-color="#5F5D9C"/>
<stop offset="1" stop-color="#E148D1"/>
</linearGradient>
<clipPath id="clip0_1_255">
<rect width="28" height="28" fill="white" transform="translate(0 0.5)"/>
</clipPath>
</defs>
</svg>
